<svg width="526" height="272" viewBox="0 0 526 272" fill="none" xmlns="http://www.w3.org/2000/svg">
<path d="M87.2448 153.26C40.8048 153.26 12.3648 129.68 12.3648 90.26C12.3648 50.48 41.7048 26.18 88.8648 26.18C134.045 26.18 163.205 49.22 163.205 89.54C163.205 128.42 133.505 153.26 87.2448 153.26ZM87.6048 125.54C110.105 125.54 122.705 111.5 122.705 89.18C122.705 65.96 109.565 53.72 88.1448 53.72C67.0848 53.72 52.6848 66.5 52.6848 89.18C52.6848 111.86 65.8248 125.54 87.6048 125.54ZM170.613 152V27.8H244.593C286.533 27.8 314.253 48.5 314.253 88.1C314.253 129.32 284.553 152 243.153 152H170.613ZM208.053 123.92H239.913C264.573 123.92 275.733 109.88 275.733 88.82C275.733 67.94 263.313 55.34 241.353 55.34H208.053V123.92ZM321.574 152V27.8H359.554V152H321.574ZM370.23 152V27.8H411.99L460.59 86.66C467.25 94.58 471.03 99.44 475.35 105.38C474.99 98.36 474.99 91.88 474.99 83.42V27.8H510.45V152H471.39L422.97 92.96C416.31 84.86 412.17 79.46 405.15 69.74C405.51 78.38 405.69 85.22 405.69 93.5V152H370.23Z" fill="white"/>
<path d="M42.644 271.6C33.404 260.688 27.772 248.368 27.772 232.352C27.772 216.6 32.7 205.248 42.468 193.28H56.02C47.748 205.688 44.492 218.712 44.492 232.44C44.492 245.992 48.364 259.984 56.02 271.6H42.644ZM469.706 271.6C477.362 259.984 481.234 245.992 481.234 232.44C481.234 218.712 477.978 205.688 469.706 193.28H483.258C493.026 205.248 497.954 216.6 497.954 232.352C497.954 248.368 492.322 260.688 483.082 271.6H469.706Z" fill="#F43F5E"/>
<path d="M57.7525 254V193.28H95.7685C112.929 193.28 121.553 198.736 121.553 209.824C121.553 218.096 116.449 222.936 107.561 224.52C117.681 226.104 120.233 230.152 120.585 237.192L121.288 247.488C121.465 250.304 121.993 252.328 123.489 254H104.921C103.689 252.944 102.984 251.36 102.721 247.224L102.457 240.448C102.192 233.672 98.9365 231.736 92.6005 231.736H76.3205V254H57.7525ZM76.3205 219.856H94.5365C99.2885 219.856 102.632 216.864 102.632 212.464C102.632 208.064 99.4645 205.424 94.5365 205.424H76.3205V219.856ZM126.485 254V193.28H182.629V206.568H144.877V217.04H176.205V229.184H144.877V240.448H183.773V254H126.485ZM219.653 254.616C197.389 254.616 183.749 243.616 183.749 224.08C183.749 204.368 197.301 192.488 221.325 192.488C241.917 192.488 252.917 202.08 253.973 217.04H234.525C233.293 209.384 228.629 205.952 220.533 205.952C209.797 205.952 203.637 211.672 203.637 223.2C203.637 234.552 209.797 241.24 219.829 241.24C227.397 241.24 233.821 237.544 234.877 229.888H254.501C252.301 246.696 238.485 254.616 219.653 254.616ZM257.42 254V193.28H275.988V254H257.42ZM281.207 254V193.28H315.967C334.535 193.28 344.391 199.968 344.391 214.312C344.391 229.008 334.095 236.84 316.583 236.84H300.127V254H281.207ZM300.127 223.992H316.495C323.007 223.992 326.087 220.384 326.087 214.752C326.087 209.384 322.831 206.216 316.231 206.216H300.127V223.992ZM347.276 254V193.28H403.42V206.568H365.668V217.04H396.996V229.184H365.668V240.448H404.564V254H347.276ZM439.631 254.528C418.687 254.528 405.663 248.016 405.223 234.288H424.143C424.671 240.448 430.391 243.088 439.279 243.088C447.903 243.088 450.983 240.8 450.983 237.28C450.983 234.2 449.135 232.616 442.975 231.56L426.519 228.656C414.727 226.456 406.983 222.056 406.983 211.232C406.983 198.472 419.567 192.576 437.519 192.576C454.151 192.576 467.439 196.8 468.319 211.408H449.399C448.959 206.216 445.439 203.928 437.343 203.928C428.895 203.928 424.935 205.864 424.935 209.384C424.935 212.376 427.135 213.52 432.767 214.576L449.223 217.392C463.743 219.856 469.551 224.872 469.551 235.432C469.551 248.192 458.727 254.528 439.631 254.528Z" fill="white"/>
</svg>
